HIERARCHY
ROOT Hips
{
	OFFSET 0.000000 0.000000 0.000000 
	CHANNELS 6 Xposition Yposition Zposition Zrotation Yrotation Xrotation
	JOINT LeftUpLeg
	{
		OFFSET 1.363060 -1.794630 0.839290 
		CHANNELS 3 Zrotation Yrotation Xrotation
		JOINT LeftLeg
		{
			OFFSET 2.448110 -6.726130 0.000000 
			CHANNELS 3 Zrotation Yrotation Xrotation
			JOINT LeftFoot
			{
				OFFSET 2.562200 -7.039590 0.000000 
				CHANNELS 3 Zrotation Yrotation Xrotation
				JOINT LeftToeBase
				{
					OFFSET 0.157640 -0.433110 2.322550 
					CHANNELS 3 Zrotation Yrotation Xrotation
					End Site
					{
						OFFSET 0.000000 0.000000 0.000000 
					}
				}
			}
		}
	}
	JOINT RightUpLeg
	{
		OFFSET -1.305520 -1.794630 0.839290 
		CHANNELS 3 Zrotation Yrotation Xrotation
		JOINT RightLeg
		{
			OFFSET -2.542530 -6.985550 0.000000 
			CHANNELS 3 Zrotation Yrotation Xrotation
			JOINT RightFoot
			{
				OFFSET -2.568260 -7.056230 0.000000 
				CHANNELS 3 Zrotation Yrotation Xrotation
				JOINT RightToeBase
				{
					OFFSET -0.164730 -0.452590 2.363150 
					CHANNELS 3 Zrotation Yrotation Xrotation
					End Site
					{
						OFFSET 0.000000 0.000000 0.000000 
					}
				}
			}
		}
	}
	JOINT Spine
	{
		OFFSET 0.028270 2.035590 -0.193380 
		CHANNELS 3 Zrotation Yrotation Xrotation
		JOINT Spine1
		{
			OFFSET 0.056720 2.048850 -0.042750 
			CHANNELS 3 Zrotation Yrotation Xrotation
			JOINT Neck1
			{
				OFFSET -0.054170 1.746240 0.172020 
				CHANNELS 3 Zrotation Yrotation Xrotation
				JOINT Head
				{
					OFFSET 0.104070 1.761360 -0.123970 
					CHANNELS 3 Zrotation Yrotation Xrotation
					End Site
					{
						OFFSET 0.000000 0.000000 0.000000 
					}
				}
			}
			JOINT LeftArm
			{
				OFFSET 3.362410 1.200890 -0.311210 
				CHANNELS 3 Zrotation Yrotation Xrotation
				JOINT LeftForeArm
				{
					OFFSET 4.983000 -0.000000 -0.000000 
					CHANNELS 3 Zrotation Yrotation Xrotation
					JOINT LeftHand
					{
						OFFSET 3.483560 -0.000000 -0.000000 
						CHANNELS 3 Zrotation Yrotation Xrotation
						JOINT LeftHandIndex1
						{
							OFFSET 0.715260 -0.000000 -0.000000 
							CHANNELS 3 Zrotation Yrotation Xrotation
							End Site
							{
								OFFSET 0.000000 0.000000 0.000000 
							}
						}
					}
				}
			}
			JOINT RightArm
			{
				OFFSET -3.136600 1.374050 -0.404650 
				CHANNELS 3 Zrotation Yrotation Xrotation
				JOINT RightForeArm
				{
					OFFSET -5.241900 -0.000000 -0.000000 
					CHANNELS 3 Zrotation Yrotation Xrotation
					JOINT RightHand
					{
						OFFSET -3.444170 -0.000000 -0.000000 
						CHANNELS 3 Zrotation Yrotation Xrotation
						JOINT RightHandIndex1
						{
							OFFSET -0.622530 -0.000000 -0.000000 
							CHANNELS 3 Zrotation Yrotation Xrotation
							End Site
							{
								OFFSET 0.000000 0.000000 0.000000 
							}
						}
					}
				}
			}
		}
	}
}
MOTION
Frames: 7
Frame Time: 0.041667
-43.155895 17.505001 1.666913 -54.231014 83.926085 -46.595523 -36.261719 -26.424051 10.467450 -12.699803 0.534014 3.589515 4.294876 3.519927 -37.760634 5.864900 -14.296100 -44.437000 53.398681 24.471200 17.459895 14.779741 5.618905 -8.742350 -2.636667 -20.042125 -31.709032 -0.021400 0.944600 -2.596500 2.891180 1.870519 -6.303063 4.468271 1.835024 -20.871251 -1.166489 7.464088 24.710550 -2.330700 3.824800 18.890100 -90.234480 17.967712 21.657985 17.083062 -30.788216 -5.932587 1.559465 3.194802 4.566679 -7.125000 0.000000 0.000000 75.719360 -21.390511 50.693322 -29.534696 41.634755 -8.853073 0.039068 -3.164709 -13.328978 7.125000 0.000000 0.000000 
-43.156969 17.503283 1.656926 -53.818629 83.776721 -46.023592 -36.143046 -26.583326 10.298872 -12.636869 0.599831 3.650712 4.462532 2.288418 -38.060107 5.495500 -13.921000 -42.922000 53.436844 24.677361 17.299358 14.747377 5.587977 -8.747437 -2.725833 -19.503570 -32.124243 -0.004800 0.446400 -1.226500 2.768832 2.014172 -6.376906 3.903529 1.801846 -21.015045 -1.070304 7.189035 24.780823 -2.325900 3.762200 18.854700 -89.675581 18.096716 22.363761 17.519641 -31.088986 -5.987156 1.345163 3.232050 4.060410 -7.125000 0.000000 0.000000 76.212773 -21.534245 50.560364 -29.408782 41.587350 -8.784540 0.031378 -3.171534 -13.302654 7.125000 0.000000 0.000000 
-43.160297 17.504357 1.648443 -54.708383 83.707408 -46.913273 -36.028903 -26.594934 10.241597 -12.582473 0.622618 3.679720 4.558272 1.144557 -38.078782 5.138300 -13.537800 -41.416700 53.509724 24.658423 17.269700 14.754180 5.588044 -8.769496 -2.738611 -19.557957 -32.263944 -0.008100 0.582800 -1.601400 2.736715 1.952912 -6.403914 3.707907 1.724696 -21.143483 -1.037121 7.141554 24.840680 -2.315000 3.753600 18.903900 -89.490240 18.079992 22.501452 17.786091 -31.231694 -5.956005 1.158793 3.245399 3.948191 -7.125000 0.000000 0.000000 76.291084 -21.489000 50.825071 -29.334691 41.537983 -8.748657 0.025392 -3.179563 -13.381497 7.125000 0.000000 0.000000 
-43.164485 17.503713 1.641570 -56.011612 83.610052 -48.281064 -35.796298 -26.415847 10.115819 -12.493559 0.708802 3.876367 4.561986 -0.452886 -37.524861 4.813500 -13.170700 -40.010800 53.667363 24.584845 17.300354 14.790845 5.603010 -8.802944 -2.687769 -20.067739 -32.134637 -0.026400 1.048200 -2.881400 2.673143 1.928654 -6.470688 3.368459 1.637044 -21.474108 -0.868708 7.015429 24.943214 -2.217600 3.724200 18.952700 -89.179362 18.192983 22.739246 18.076253 -31.349452 -5.911585 0.964719 3.239267 3.837056 -7.125000 0.000000 0.000000 76.523928 -21.624267 50.923575 -29.151700 41.389161 -8.647454 0.010093 -3.179831 -13.305305 7.125000 0.000000 0.000000 
-43.163197 17.503069 1.634590 -56.519886 83.561671 -48.888194 -35.746027 -26.276864 10.107314 -12.422676 0.770594 4.030802 4.590231 -1.980813 -37.150722 4.457300 -12.745300 -38.422200 53.769055 24.495023 17.433806 14.807713 5.654603 -8.875883 -2.669912 -20.264443 -32.081810 -0.021800 0.952500 -2.618200 2.507915 2.060063 -6.640541 2.680780 1.574167 -22.198063 -0.479724 6.684599 25.172909 -2.002200 3.657000 19.005500 -88.497027 18.664209 23.601077 18.590467 -31.620176 -5.934171 0.744985 3.213771 3.503557 -7.125000 0.000000 0.000000 77.249881 -22.159402 50.493434 -28.797692 41.125856 -8.466249 -0.016363 -3.187392 -12.902984 7.125000 0.000000 0.000000 
-43.160405 17.503605 1.625248 -55.913696 83.644799 -48.365774 -35.978448 -26.291182 10.254542 -12.393473 0.749215 3.989159 4.689813 -3.275000 -37.271524 4.058600 -12.238000 -36.579300 53.658452 24.447302 17.515421 14.796317 5.669488 -8.867579 -2.681894 -20.125875 -32.126328 -0.008300 0.587600 -1.614600 2.505096 1.954675 -6.835664 2.467404 1.478856 -22.421097 -0.268694 6.717366 25.305305 -1.875400 3.709300 19.077200 -88.229850 18.915425 24.179905 19.327660 -32.123798 -5.950735 0.371156 3.203204 3.079018 -7.125000 0.000000 0.000000 77.533459 -22.268401 50.527247 -28.443769 40.820777 -8.276097 -0.024853 -3.190197 -12.529836 7.125000 0.000000 0.000000 
-43.162445 17.501780 1.614080 -54.868924 83.698878 -47.296976 -36.147963 -26.310764 10.269596 -12.375629 0.720949 3.880791 4.803143 -4.308088 -37.612939 3.697100 -11.746000 -34.839200 53.496105 24.530929 17.412386 14.777273 5.600164 -8.735881 -2.710777 -19.843156 -32.232228 -0.002000 0.287600 -0.790300 2.481578 1.985671 -6.840500 2.443652 1.500732 -22.416721 -0.225753 6.735094 25.315010 -1.837000 3.712300 19.080500 -88.126501 18.717625 24.380732 19.426063 -32.172459 -5.931602 0.333169 3.180713 2.855776 -7.125000 0.000000 0.000000 77.554165 -22.387672 50.393845 -28.176064 40.573038 -8.151460 -0.029379 -3.198440 -12.326578 7.125000 0.000000 0.000000 
